<?xml version="1.0" standalone="no"?>
<!DOCTYPE svg PUBLIC "-//W3C//DTD SVG 20010904//EN"
 "http://www.w3.org/TR/2001/REC-SVG-20010904/DTD/svg10.dtd">
<svg version="1.0" xmlns="http://www.w3.org/2000/svg"
 width="326.000000pt" height="326.000000pt" viewBox="0 0 326.000000 326.000000"
 preserveAspectRatio="xMidYMid meet">
<metadata>
Created by potrace 1.14, written by Peter Selinger 2001-2017
</metadata>
<g transform="translate(0.000000,326.000000) scale(0.100000,-0.100000)"
fill="#000000" stroke="none">
<path d="M1498 3255 c-2 -2 -30 -6 -63 -9 -167 -16 -326 -63 -505 -148 -434
-206 -755 -595 -875 -1058 -25 -96 -28 -112 -44 -229 -8 -64 -7 -333 2 -381 3
-14 8 -47 12 -75 17 -123 80 -316 146 -447 113 -226 249 -392 469 -572 45 -36
186 -124 259 -160 141 -71 333 -135 455 -151 27 -3 54 -9 58 -12 15 -9 319
-11 388 -2 36 4 83 10 105 13 130 17 352 94 498 174 238 129 488 363 612 573
34 59 119 232 143 294 25 63 68 224 77 290 4 28 10 59 12 70 11 48 9 343 -3
419 -21 133 -22 138 -42 213 -70 261 -220 519 -412 713 -252 254 -547 408
-895 467 -76 13 -387 27 -397 18z"/>
</g>
</svg>
