<?xml version="1.0" standalone="no"?>
<!DOCTYPE svg PUBLIC "-//W3C//DTD SVG 20010904//EN"
 "http://www.w3.org/TR/2001/REC-SVG-20010904/DTD/svg10.dtd">
<svg version="1.0" xmlns="http://www.w3.org/2000/svg"
 width="1000.000000pt" height="1000.000000pt" viewBox="0 0 1000.000000 1000.000000"
 preserveAspectRatio="xMidYMid meet">
<metadata>
Created by potrace 1.14, written by Peter Selinger 2001-2017
</metadata>
<g transform="translate(0.000000,1000.000000) scale(0.100000,-0.100000)"
fill="#000000" stroke="none">
<path d="M111 9984 c0 -11 3 -14 6 -6 3 7 2 16 -1 19 -3 4 -6 -2 -5 -13z"/>
<path d="M191 9984 c0 -11 3 -14 6 -6 3 7 2 16 -1 19 -3 4 -6 -2 -5 -13z"/>
<path d="M230 9991 c0 -7 -5 -9 -12 -5 -7 5 -8 3 -3 -5 5 -9 10 -10 18 -2 6 6
8 14 4 18 -4 3 -7 1 -7 -6z"/>
<path d="M256 9989 c3 -6 1 -15 -6 -19 -9 -5 -8 -9 3 -13 10 -4 16 2 20 19 3
16 0 24 -10 24 -8 0 -11 -5 -7 -11z"/>
<path d="M294 9969 c2 -20 -4 -30 -20 -38 -20 -9 -21 -13 -11 -35 l12 -26 6
33 c6 32 13 19 9 -17 -1 -11 3 -15 9 -12 7 4 8 1 5 -8 -3 -9 -10 -13 -15 -10
-5 3 -9 1 -9 -4 0 -6 6 -12 14 -15 19 -7 30 37 16 63 -17 32 -11 37 9 6 14
-21 17 -35 11 -51 -10 -26 -4 -35 21 -35 9 0 20 -7 23 -16 3 -8 11 -12 17 -8
8 4 9 3 5 -4 -4 -6 -13 -9 -21 -5 -8 3 -15 0 -15 -6 0 -5 12 -9 28 -8 24 2 27
6 29 40 2 20 -1 37 -6 37 -5 0 -7 -10 -5 -22 4 -21 4 -21 -4 -3 l-9 20 -5 -20
c-5 -16 -6 -16 -7 -3 0 10 8 26 20 37 12 11 18 24 15 29 -3 5 8 12 24 14 17 3
30 1 30 -4 0 -4 -6 -8 -13 -8 -23 0 -34 -19 -29 -51 3 -22 7 -27 13 -18 6 9 9
-4 9 -34 0 -33 -4 -46 -11 -41 -7 4 -7 -1 1 -16 7 -12 17 -19 26 -16 8 3 21 3
29 0 20 -8 19 -44 -1 -44 -14 0 -14 2 -3 16 11 14 9 15 -16 12 -22 -2 -31 -10
-35 -28 -3 -14 -13 -26 -22 -28 -12 -2 -15 2 -11 18 4 17 8 18 14 8 6 -9 8 -4
7 13 -2 26 -23 31 -26 6 -1 -7 -3 -23 -6 -37 -3 -20 1 -26 14 -27 10 -1 21 5
24 14 5 12 9 13 20 4 11 -9 16 -9 23 2 4 7 16 17 27 20 16 6 18 3 13 -19 -4
-24 -3 -24 11 -10 9 9 17 34 17 56 1 43 -11 55 -18 18 -2 -13 -3 -5 -1 17 2
22 3 42 4 45 0 3 7 -6 15 -20 7 -14 17 -24 22 -23 4 1 7 -5 5 -13 -2 -8 3 -14
10 -14 9 0 9 -3 -2 -10 -9 -5 -17 -5 -20 0 -3 5 -7 -18 -7 -51 -2 -67 21 -123
39 -97 7 10 8 8 4 -4 -6 -21 4 -23 24 -5 7 6 3 -2 -9 -20 -26 -39 -38 -47 -38
-28 0 8 4 12 9 9 14 -9 9 10 -12 41 l-21 30 6 -30 c3 -16 2 -24 -1 -17 -3 6
-9 12 -13 12 -12 0 -31 -49 -22 -54 12 -8 1 -56 -13 -57 -6 0 0 -5 13 -10 18
-7 27 -6 32 3 11 17 -1 33 -12 17 -7 -10 -8 -9 -6 6 1 11 6 21 10 23 4 1 7 -1
6 -4 0 -4 5 -10 11 -14 9 -6 9 -13 1 -29 -9 -16 -9 -21 1 -21 8 -1 7 -5 -4
-14 -10 -7 -18 -22 -18 -32 0 -11 -4 -15 -8 -9 -11 15 -32 17 -30 3 2 -8 -9
-14 -24 -16 -35 -4 -36 -26 -3 -48 30 -19 48 -10 42 22 -3 18 0 24 14 24 11 0
19 6 19 13 0 8 4 7 10 -3 8 -12 10 -12 10 -1 0 8 2 12 5 9 3 -3 2 -13 -1 -22
-5 -13 -9 -14 -14 -5 -5 7 -8 -4 -7 -24 1 -47 -6 -53 -46 -40 -32 10 -33 9
-35 -19 -1 -15 3 -28 8 -28 6 0 8 -4 5 -10 -3 -5 1 -10 10 -10 9 0 13 5 10 10
-3 6 0 10 7 11 7 0 3 4 -9 9 -13 5 -23 14 -23 20 0 19 25 10 43 -16 18 -24 18
-27 2 -44 -12 -14 -13 -20 -4 -26 7 -4 10 -3 5 4 -3 6 -2 13 4 17 5 3 10 -1
10 -9 0 -8 9 -21 20 -29 12 -8 20 -21 18 -28 -2 -9 4 -13 16 -11 13 2 16 -1
10 -10 -6 -10 -4 -10 9 1 20 16 13 33 -10 24 -13 -5 -15 -2 -11 15 3 12 3 21
-1 20 -36 -4 -42 3 -39 47 3 43 19 63 24 30 1 -8 -2 -13 -7 -9 -5 3 -9 -2 -9
-10 0 -9 5 -16 11 -16 8 0 7 -6 -2 -17 -13 -15 -11 -16 14 -9 22 5 27 3 27
-13 0 -26 23 -44 38 -29 7 7 12 8 12 3 0 -6 5 -3 10 5 8 13 10 12 10 -3 0 -10
-11 -22 -25 -27 -32 -12 -32 -30 0 -30 15 0 25 -5 24 -12 -3 -28 2 -38 19 -38
14 0 15 -2 2 -10 -12 -8 -12 -10 5 -10 17 0 17 -2 5 -10 -11 -7 -12 -10 -2
-10 10 0 10 -4 -2 -15 -8 -9 -13 -23 -10 -33 5 -14 4 -15 -5 -2 -9 13 -11 13
-11 -2 0 -18 15 -23 58 -19 14 1 22 -4 22 -14 0 -10 -5 -13 -12 -9 -17 11 -58
11 -64 2 -3 -5 -2 -8 3 -7 22 4 44 -2 38 -11 -3 -5 -13 -7 -23 -4 -13 5 -14 4
-3 -4 10 -7 12 -20 7 -43 -4 -23 -3 -29 3 -19 8 11 12 8 22 -15 12 -28 13 -29
16 -7 3 12 8 22 12 22 9 0 8 -42 -2 -57 -6 -9 -3 -11 8 -7 13 5 15 2 9 -20 -4
-16 -2 -26 5 -26 6 0 8 7 5 15 -5 11 1 15 21 15 15 0 24 -4 20 -10 -4 -6 -10
-8 -14 -6 -10 7 -8 -66 3 -83 6 -9 4 -18 -5 -25 -8 -6 -14 -21 -14 -34 1 -27
26 -47 37 -29 5 8 8 4 8 -10 0 -18 -6 -23 -25 -23 -29 0 -44 -25 -26 -43 10
-10 26 -13 82 -16 9 -1 21 -12 27 -26 16 -34 15 -40 -3 -25 -9 7 -18 10 -22 6
-3 -3 -1 -6 6 -6 7 0 9 -5 5 -12 -4 -6 -3 -8 4 -4 11 7 65 -37 57 -46 -7 -6
-14 -43 -17 -81 -2 -18 -7 -26 -15 -22 -10 3 -11 0 -3 -15 13 -25 13 -30 -5
-30 -9 0 -15 -9 -15 -25 0 -16 6 -25 15 -25 9 0 15 9 15 25 0 14 5 25 10 25 6
0 10 -7 10 -15 0 -8 5 -15 11 -15 5 0 7 -4 4 -10 -3 -5 -2 -10 4 -10 5 0 13
-10 16 -21 4 -13 10 -17 14 -11 10 16 29 0 32 -28 3 -20 9 -24 30 -22 14 1 37
-3 50 -10 20 -11 24 -22 26 -61 2 -34 9 -54 25 -70 31 -31 58 -40 75 -26 19
17 27 5 11 -20 -18 -29 -38 -35 -38 -11 0 11 -7 20 -15 20 -8 0 -15 -4 -15
-10 0 -5 4 -10 10 -10 5 0 7 -7 4 -15 -5 -11 1 -15 21 -15 17 0 25 -4 22 -12
-2 -7 -10 -12 -16 -10 -6 1 -10 -1 -10 -5 4 -24 -4 -33 -26 -33 -16 0 -25 6
-25 15 0 8 5 15 10 15 6 0 10 5 10 10 0 18 -16 10 -30 -15 -7 -13 -18 -23 -24
-22 -6 1 -12 -15 -14 -35 -3 -35 -1 -38 22 -38 19 0 26 5 26 20 0 15 7 20 25
20 21 0 25 -5 25 -30 0 -21 9 -39 27 -55 26 -22 27 -25 11 -37 -9 -7 -18 -20
-19 -28 -3 -23 18 -67 38 -79 17 -10 16 -11 -4 -17 -13 -3 -20 -11 -17 -16 4
-6 -3 -5 -14 1 -18 10 -20 9 -17 -10 2 -11 -2 -31 -10 -43 -10 -15 -11 -25 -4
-36 9 -12 10 -12 5 3 -3 11 -2 16 4 12 6 -3 10 -17 10 -31 l0 -25 -26 28 c-20
22 -24 24 -19 8 4 -14 3 -17 -4 -10 -7 7 -8 22 -1 45 l10 35 -19 -24 c-10 -13
-16 -33 -13 -47 4 -22 1 -24 -32 -24 -32 0 -36 -3 -36 -25 0 -25 23 -35 35
-15 3 6 15 10 26 10 10 0 19 5 19 10 0 23 19 8 22 -17 4 -33 -18 -86 -32 -78
-18 11 -10 -4 13 -25 12 -12 18 -21 12 -20 -45 9 -50 0 -30 -55 5 -15 4 -16
-3 -6 -7 10 -11 -1 -13 -40 -3 -42 0 -58 14 -72 14 -14 17 -14 17 -2 0 8 5 15
10 15 6 0 10 -11 10 -25 0 -14 -4 -25 -10 -25 -5 0 -10 -8 -10 -17 -1 -17 -1
-17 -14 0 -17 23 -36 22 -36 -2 0 -11 -6 -22 -13 -24 -6 -3 7 -6 31 -6 39 -1
43 -3 40 -23 -2 -18 -9 -23 -30 -23 -25 1 -28 -3 -28 -32 0 -18 5 -33 10 -33
6 0 10 -11 10 -25 0 -16 6 -25 15 -25 8 0 15 -4 15 -10 0 -5 -11 -10 -25 -10
-14 0 -25 5 -25 10 0 6 -6 10 -14 10 -9 0 -12 -8 -9 -24 4 -19 12 -26 36 -28
36 -4 47 -23 16 -31 -12 -3 -18 -10 -14 -17 4 -6 -1 -17 -11 -25 -18 -13 -18
-14 -2 -20 25 -10 22 -30 -4 -42 l-23 -10 22 -7 c16 -5 23 -15 23 -32 0 -13
-4 -24 -10 -24 -5 0 -10 -9 -10 -21 0 -11 5 -17 10 -14 9 6 15 -37 11 -72 -1
-9 12 -13 39 -13 33 0 40 -3 40 -19 0 -14 8 -21 28 -24 l27 -4 -28 -2 c-16 0
-26 -5 -23 -10 3 -4 -5 -7 -17 -6 -20 3 -23 -1 -19 -26 2 -16 -1 -35 -7 -43
-12 -14 -10 -51 4 -63 4 -5 5 -2 0 6 -6 10 -4 12 4 7 7 -5 10 -14 7 -22 -3 -7
-1 -16 4 -19 6 -4 10 -2 10 4 0 5 12 23 26 40 23 28 27 29 41 15 14 -13 14
-16 -2 -28 -17 -12 -16 -14 8 -20 15 -3 27 -11 27 -17 0 -6 5 -7 10 -4 6 3 10
-3 10 -13 0 -15 5 -19 19 -15 12 3 30 -5 47 -21 20 -18 30 -22 35 -14 4 7 5
16 3 20 -3 4 2 5 10 2 20 -8 20 -20 0 -28 -8 -3 -13 -10 -10 -15 3 -5 -6 -8
-19 -8 -14 0 -25 4 -25 9 0 5 5 6 12 2 7 -4 8 -3 4 4 -10 16 -26 15 -26 -2 0
-16 -108 -30 -126 -15 -6 5 -22 7 -35 5 -13 -3 -40 -5 -60 -5 -37 -1 -37 -1
-35 -41 2 -37 0 -41 -27 -48 -36 -9 -75 -71 -54 -84 20 -13 25 -9 20 12 -5 17
0 20 26 20 17 0 31 -4 31 -10 0 -5 -5 -10 -11 -10 -19 0 18 -29 47 -36 16 -4
34 -13 39 -20 11 -15 99 -22 132 -11 19 7 21 5 15 -15 -3 -12 -7 -17 -10 -10
-2 6 -10 12 -18 12 -9 0 -13 -4 -10 -9 4 -5 0 -12 -6 -15 -7 -3 -4 -4 7 -1 26
6 52 -9 35 -20 -25 -16 -79 -23 -84 -11 -3 8 -5 7 -5 -1 -1 -7 -8 -10 -16 -7
-8 4 -15 1 -15 -5 0 -6 -10 -11 -22 -11 -32 0 -51 -14 -46 -34 3 -16 5 -15 25
3 12 12 27 21 33 21 16 0 12 -18 -7 -29 -16 -9 -16 -12 -3 -21 11 -7 -2 -10
-45 -10 -41 0 -55 -3 -45 -10 18 -11 13 -16 -24 -26 -21 -5 -27 -4 -22 5 10
15 0 14 -29 -5 -23 -15 -25 -23 -25 -90 0 -59 -3 -74 -15 -74 -19 0 -19 -21 0
-46 8 -10 15 -27 15 -36 0 -12 8 -18 25 -18 22 0 25 -4 24 -32 -1 -24 -3 -27
-6 -11 -4 21 -46 43 -59 31 -6 -7 19 -54 29 -55 16 -2 20 -13 6 -13 -11 0 -11
-2 1 -10 12 -8 12 -10 -5 -11 -11 0 -14 -3 -7 -6 6 -2 12 -16 12 -30 0 -15 -5
-23 -12 -20 -7 2 -12 10 -10 17 2 7 -5 9 -18 5 -14 -5 -20 -2 -20 9 0 11 -10
16 -33 16 -26 0 -36 -6 -45 -25 -6 -14 -16 -25 -22 -25 -5 0 -10 -13 -10 -30
0 -25 4 -30 25 -30 20 0 25 -5 25 -25 0 -16 -6 -25 -15 -25 -9 0 -15 -9 -15
-25 0 -21 6 -26 40 -31 25 -4 40 -12 40 -21 0 -11 -12 -13 -60 -7 -48 5 -61 4
-65 -9 -4 -9 -14 -13 -26 -10 -10 3 -19 0 -19 -6 0 -6 4 -11 9 -11 5 0 7 -9 4
-20 -7 -25 13 -26 39 -3 17 15 18 15 18 0 0 -10 5 -17 11 -17 6 0 4 -9 -5 -21
-8 -12 -12 -28 -9 -35 4 -10 -4 -14 -26 -14 -20 0 -31 -5 -31 -14 0 -8 -5 -16
-11 -18 -9 -3 -9 -9 0 -25 17 -34 14 -73 -6 -73 -15 0 -16 -2 -3 -10 9 -5 19
-5 27 2 10 8 13 5 13 -15 0 -14 6 -27 13 -30 9 -3 9 -11 2 -33 -13 -36 -30
-30 -30 11 -1 25 -5 31 -28 33 -27 3 -38 -12 -14 -21 8 -3 5 -10 -9 -21 -16
-11 -20 -22 -16 -43 8 -42 4 -136 -7 -142 -4 -3 -10 -24 -13 -45 -3 -31 -1
-40 14 -44 10 -2 18 -8 18 -12 0 -4 11 -5 25 -2 20 3 24 1 19 -11 -10 -26 14
-55 49 -60 31 -4 31 -4 -5 -5 -21 -1 -38 -6 -38 -12 0 -15 -41 -12 -54 5 -9
12 -17 10 -53 -13 -23 -15 -42 -32 -43 -39 0 -6 -8 -14 -18 -16 -14 -4 -15 -5
-1 -6 9 0 19 -11 21 -23 4 -19 0 -23 -26 -25 -16 -1 -32 -6 -35 -10 -3 -5 -17
-8 -31 -8 -23 0 -25 -4 -24 -42 1 -35 -3 -43 -17 -43 -10 0 -21 -5 -24 -11 -9
-14 24 -49 47 -49 14 0 18 -8 18 -35 0 -19 -5 -35 -11 -35 -7 0 -9 -10 -5 -25
5 -19 2 -25 -9 -25 -12 0 -15 8 -13 32 2 24 -1 33 -14 36 -13 2 -18 -3 -18
-17 0 -21 -11 -25 -55 -23 -11 0 -14 -2 -7 -4 6 -3 12 -10 12 -16 0 -6 10 -19
22 -30 l22 -18 -32 -12 c-32 -12 -43 -40 -21 -54 8 -4 7 -9 -2 -15 -10 -6 -11
-9 -1 -9 7 0 12 -13 12 -30 0 -25 -4 -30 -25 -30 -20 0 -25 -5 -25 -25 0 -16
6 -25 15 -25 8 0 15 -7 15 -15 0 -8 5 -15 10 -15 6 0 10 -4 10 -10 0 -5 -7
-10 -15 -10 -8 0 -15 6 -15 13 0 8 -3 7 -10 -3 -7 -11 -4 -17 13 -23 21 -9 21
-9 2 -16 -18 -7 -18 -8 -1 -18 17 -9 17 -11 1 -16 -9 -4 -13 -12 -9 -18 4 -8
3 -9 -4 -5 -7 4 -12 14 -12 22 0 22 -60 19 -60 -3 -1 -16 -2 -16 -16 2 -17 23
-36 15 -68 -28 -20 -28 -16 -48 6 -30 7 6 22 8 33 6 11 -2 26 -5 33 -5 16 -2
16 -38 -1 -38 -7 0 -24 -11 -39 -25 -15 -14 -32 -25 -38 -25 -5 0 -10 -11 -10
-24 0 -19 6 -25 28 -28 23 -3 27 -8 30 -38 2 -26 0 -31 -8 -20 -5 9 -10 10
-10 3 0 -16 -38 -4 -42 14 -2 12 -7 11 -25 -5 -13 -11 -23 -22 -23 -26 0 -3
23 -6 50 -6 42 0 50 -3 50 -19 0 -14 -6 -17 -25 -13 -22 4 -25 1 -25 -22 0
-22 -4 -26 -29 -26 -25 0 -28 3 -23 28 l5 27 -24 -25 c-27 -29 -70 -60 -81
-60 -5 0 -8 7 -8 15 0 10 10 15 28 15 26 1 26 1 8 15 -25 19 -36 19 -36 1 0
-8 -5 -16 -10 -18 -6 -2 -12 -14 -12 -28 -1 -14 -6 -28 -11 -31 -6 -4 -11 -34
-13 -68 -2 -52 0 -61 14 -61 14 -1 14 -2 -3 -12 -19 -11 -19 -11 0 -19 20 -7
20 -8 0 -8 -17 -1 -17 -3 -5 -11 10 -6 11 -10 3 -10 -10 0 -13 -241 -13 -1172
1 -1167 1 -1173 20 -1149 11 12 18 27 15 31 -8 12 61 60 87 60 20 0 58 30 58
46 0 3 39 46 88 96 239 248 272 284 272 297 0 5 6 14 14 18 67 40 473 443 482
480 4 13 12 23 20 23 8 0 14 3 14 8 0 4 27 36 60 72 33 35 60 70 60 76 0 7 12
20 28 29 34 21 112 123 112 147 0 10 3 18 8 18 8 0 81 69 118 111 12 13 34 33
50 44 38 27 167 144 177 161 4 8 12 14 17 14 14 0 130 91 130 102 0 4 6 8 13
8 11 0 175 118 211 152 8 7 34 28 57 47 49 39 115 113 235 269 81 104 86 114
70 141 -7 10 -6 12 4 6 10 -6 11 -2 6 19 -4 18 -3 25 6 24 7 -2 14 7 16 20 2
12 8 22 13 22 5 0 9 5 9 11 0 16 32 83 43 90 6 4 7 14 4 23 -4 9 -1 16 6 16 7
0 18 9 25 21 11 17 11 20 0 14 -7 -4 -2 4 12 17 14 14 29 23 34 20 5 -3 7 6 4
20 -2 13 2 30 9 37 7 7 11 16 8 22 -4 5 -1 9 5 9 6 0 10 8 8 18 -2 9 2 16 8
15 7 -1 15 9 18 22 4 14 12 25 19 25 9 0 9 2 -1 8 -9 6 -5 16 16 38 16 17 28
38 26 47 -1 10 1 15 5 13 4 -3 14 10 21 29 8 19 18 35 22 35 9 0 29 47 27 64
0 5 6 13 15 18 9 5 16 18 16 28 0 11 4 20 8 20 11 0 32 61 25 73 -4 6 0 8 10
4 10 -3 17 -3 18 1 6 54 30 112 57 137 15 14 22 25 15 25 -6 0 -9 9 -6 20 3
11 9 20 14 20 9 0 64 89 64 105 1 6 6 9 13 8 6 -2 9 3 6 11 -3 7 13 32 35 55
22 23 40 43 40 44 -1 12 15 36 22 32 4 -3 15 5 24 19 9 14 24 27 33 29 15 4
15 5 -1 6 -10 0 -15 6 -12 11 4 6 11 8 16 5 5 -4 9 -3 9 2 0 4 11 21 24 36 14
16 22 35 19 43 -3 8 1 14 9 14 7 0 20 9 28 21 8 11 28 27 43 35 27 14 54 35
82 62 8 6 21 12 30 12 9 0 26 5 37 11 15 8 18 8 14 0 -5 -7 -1 -9 8 -5 9 3 16
11 16 16 0 6 7 7 16 4 8 -3 12 -2 9 3 -3 5 -1 12 5 16 5 3 10 0 11 -7 0 -7 4
-4 9 7 6 14 9 15 10 5 1 -9 5 -6 10 7 5 13 15 23 21 23 8 0 7 -5 -2 -17 -8 -9
1 -6 19 7 18 14 47 25 65 25 22 1 31 6 29 16 -2 8 0 11 4 7 4 -5 21 2 38 15
33 24 38 25 74 13 16 -5 29 -3 41 8 10 9 21 13 25 9 4 -4 4 1 0 11 -5 12 -4
17 3 13 5 -4 15 4 21 17 8 19 20 25 59 29 71 7 119 25 117 44 -2 14 59 53 84
53 54 0 98 21 112 53 7 18 46 82 86 142 55 85 80 114 109 128 35 17 37 20 30
53 -3 20 -21 57 -39 82 -41 57 -73 130 -96 219 -15 60 -21 68 -47 75 -16 4
-41 21 -57 37 -36 38 -76 148 -76 211 0 27 -7 95 -16 150 -13 83 -14 107 -3
131 14 34 49 52 84 43 13 -3 26 0 30 7 5 8 4 10 -3 5 -8 -5 -12 0 -12 13 0 12
5 21 11 21 6 0 9 6 6 13 -2 6 4 22 14 35 10 14 15 31 11 45 -5 18 -7 19 -10 4
-2 -9 -8 -14 -14 -11 -6 4 -6 -1 1 -14 11 -20 -2 -42 -16 -28 -3 3 -13 0 -22
-6 -12 -10 -12 -8 2 8 19 23 23 39 6 28 -6 -3 -3 5 6 20 16 24 16 26 1 26 -11
0 -14 -5 -10 -12 4 -6 3 -8 -2 -5 -5 3 -8 25 -6 49 2 24 4 51 5 60 1 14 4 15
16 5 12 -10 13 -9 6 2 -15 26 -14 66 3 85 9 11 12 16 6 13 -7 -4 -14 2 -17 13
-3 11 0 20 6 20 7 0 12 16 12 40 0 22 -3 40 -7 40 -5 0 -8 -5 -8 -12 0 -6 -3
-9 -6 -6 -3 4 2 20 11 37 11 23 12 31 3 29 -13 -3 -14 13 -4 57 3 11 5 24 5
28 1 5 7 7 13 5 7 -3 21 5 31 16 l18 21 -11 -22 c-6 -13 -8 -23 -5 -23 3 0 1
-9 -4 -19 -8 -14 -7 -20 3 -24 17 -7 33 11 71 78 67 120 157 196 271 234 38
12 78 27 89 32 28 13 123 30 168 29 21 0 37 4 37 10 0 6 5 8 10 5 6 -4 31 -7
55 -7 30 0 45 -4 49 -15 4 -8 12 -13 20 -10 8 3 16 -2 19 -14 3 -10 13 -19 22
-19 15 0 15 -1 1 -16 -9 -8 -13 -21 -9 -27 4 -7 9 -4 14 9 4 10 8 13 8 7 1 -7
9 -13 18 -13 13 0 14 3 5 12 -16 16 -15 28 3 28 9 0 20 -11 25 -25 11 -28 22
-35 14 -7 -4 12 -3 13 3 4 6 -7 9 -25 8 -40 -1 -15 2 -29 6 -32 4 -3 9 -12 11
-20 2 -8 12 -24 24 -35 27 -27 36 -61 18 -76 -8 -6 -12 -14 -9 -18 2 -4 6 -20
9 -36 3 -16 9 -31 14 -34 5 -3 12 -13 15 -21 4 -12 6 -11 6 3 1 10 6 15 12 12
6 -4 8 -13 5 -21 -4 -11 0 -11 19 -2 14 6 25 16 25 21 0 6 3 8 6 5 9 -10 -16
-49 -27 -43 -5 4 -9 2 -9 -3 0 -6 -11 -13 -25 -16 -14 -4 -25 -11 -25 -17 0
-6 -4 -7 -10 -4 -5 3 -10 1 -10 -5 0 -7 -22 -9 -69 -5 -53 4 -71 2 -80 -9 -7
-8 -18 -13 -25 -10 -17 7 -54 -35 -39 -44 13 -8 -17 -50 -32 -45 -6 2 -11 -15
-11 -36 -1 -30 3 -40 16 -44 13 -3 16 -12 13 -33 -2 -16 -5 -45 -7 -64 -1 -19
-5 -40 -8 -45 -3 -6 0 -27 7 -47 9 -27 9 -40 1 -49 -8 -9 -8 -10 2 -5 6 4 12
2 12 -3 0 -6 -5 -11 -11 -11 -8 0 -9 -4 0 -13 6 -8 8 -17 3 -21 -4 -4 1 -12
10 -17 10 -5 16 -15 14 -22 -1 -6 -1 -9 1 -4 8 12 20 8 27 -10 3 -10 8 -23 11
-29 4 -7 -14 -16 -42 -24 -58 -16 -73 -26 -73 -52 0 -15 -3 -17 -19 -8 -27 14
-71 12 -100 -4 l-24 -13 21 -12 c13 -7 37 -9 56 -6 32 7 34 6 38 -28 2 -21 0
-33 -6 -30 -5 4 -7 -3 -4 -15 4 -15 0 -25 -10 -32 -15 -8 -15 -9 2 -10 11 0
16 -5 13 -14 -4 -9 3 -13 23 -12 15 1 26 4 23 9 -2 4 -1 7 4 8 4 0 15 2 23 4
31 8 74 14 63 9 -7 -3 -13 -16 -13 -29 0 -22 -22 -50 -32 -40 -14 15 -182 -29
-208 -55 -3 -3 -15 -11 -28 -18 -20 -11 -24 -9 -42 20 -11 18 -20 26 -21 18 0
-8 -5 -4 -10 9 -5 14 -7 31 -5 38 3 7 -1 13 -9 13 -23 0 -9 38 44 122 28 43
46 78 41 78 -6 0 -9 3 -9 8 1 4 1 22 0 40 -1 38 -4 37 -75 -22 -25 -22 -46
-48 -46 -58 0 -11 -4 -17 -9 -14 -12 8 -22 -20 -15 -39 4 -10 0 -15 -11 -15
-9 0 -14 -4 -11 -8 3 -5 -4 -23 -15 -41 -11 -18 -17 -36 -14 -42 4 -5 1 -9 -6
-9 -8 0 -8 -4 -2 -12 6 -7 8 -33 7 -57 -5 -55 21 -147 44 -156 14 -5 14 -7 2
-15 -8 -6 -10 -10 -4 -10 6 0 11 -17 12 -37 1 -20 7 -40 14 -45 10 -6 10 -8 1
-8 -9 0 -10 -7 -5 -22 5 -13 8 -30 7 -38 0 -8 5 -26 12 -39 6 -14 10 -28 7
-33 -3 -4 -1 -8 4 -8 11 0 24 40 28 90 3 34 24 132 29 138 3 3 35 -14 106 -57
26 -15 55 -22 102 -23 37 -1 69 0 71 3 3 3 31 2 61 -1 37 -4 62 -2 73 6 10 7
33 14 51 16 31 3 33 1 36 -29 1 -18 0 -32 -4 -31 -15 3 -81 -15 -81 -22 0 -5
-9 -6 -19 -3 -11 3 -43 -3 -71 -12 -28 -9 -56 -15 -63 -12 -7 3 -26 -6 -42
-19 -20 -16 -25 -24 -15 -25 21 -2 31 -4 63 -13 26 -8 26 -9 10 -22 -17 -13
-17 -14 1 -7 13 4 17 3 12 -5 -4 -7 14 -11 61 -10 94 1 105 -1 98 -12 -3 -5
-2 -10 4 -10 5 0 11 5 13 12 2 6 10 8 16 4 7 -4 9 -13 5 -19 -14 -22 -11 -37
5 -37 15 0 15 -2 2 -10 -10 -6 -11 -10 -2 -10 19 0 14 -20 -5 -20 -16 -1 -16
-2 2 -17 17 -13 17 -15 2 -10 -13 5 -20 0 -27 -18 -5 -14 -15 -24 -22 -23 -7
2 -12 -2 -11 -8 1 -8 -12 -12 -35 -12 -20 0 -31 3 -25 5 7 3 13 11 13 18 0 9
-17 13 -59 12 -33 0 -58 -4 -55 -9 3 -4 -3 -8 -13 -8 -12 0 -14 -3 -6 -8 8 -5
8 -14 -3 -32 -14 -23 -14 -23 -9 -2 4 12 3 22 -2 23 -4 0 -16 2 -25 4 -20 4
-25 -20 -7 -31 8 -4 7 -9 -2 -15 -11 -6 -10 -9 4 -15 9 -3 17 -10 17 -16 0 -5
-6 -6 -12 -2 -7 4 -5 -2 5 -13 9 -11 17 -27 17 -35 0 -9 12 -19 27 -23 15 -3
31 -12 35 -18 6 -9 8 -9 8 1 0 17 29 15 36 -3 4 -8 14 -15 23 -15 12 0 13 -2
3 -9 -11 -6 -10 -10 5 -16 35 -15 45 -15 32 1 -6 8 -9 17 -5 21 3 3 6 1 6 -6
0 -9 9 -12 25 -9 14 3 25 1 25 -3 0 -5 -7 -9 -15 -9 -18 0 -20 -20 -2 -21 29
-1 -32 -18 -70 -18 -24 -1 -43 -6 -43 -11 0 -6 6 -9 13 -8 6 2 11 -3 9 -10 -2
-14 19 -12 30 3 12 17 16 1 6 -25 -7 -20 -11 -22 -18 -10 -8 13 -10 12 -10 -3
0 -10 7 -20 15 -23 8 -4 15 -15 15 -25 0 -10 5 -19 10 -19 6 0 5 -8 -2 -21 -9
-13 -20 -19 -35 -16 -15 3 -23 -1 -23 -9 0 -8 5 -14 11 -14 6 0 9 -7 5 -15 -4
-11 2 -15 24 -15 18 0 34 -8 43 -21 10 -13 17 -17 22 -10 3 6 10 9 15 6 4 -3
6 3 3 14 -3 13 -11 17 -24 14 -13 -4 -19 0 -19 12 0 14 6 16 35 11 22 -4 35
-3 35 4 0 5 8 10 18 10 13 0 14 -2 3 -9 -18 -12 3 -24 29 -16 13 4 17 12 13
23 -5 14 -3 15 7 5 11 -10 10 -16 -4 -32 -17 -19 -17 -19 23 -15 44 4 56 -10
19 -20 -19 -5 -20 -8 -8 -15 8 -5 17 -8 21 -5 4 2 6 -4 5 -13 0 -9 5 -18 12
-20 6 -3 12 2 12 11 0 9 5 16 11 16 6 0 9 -9 6 -20 -4 -15 0 -20 14 -20 10 0
19 -6 19 -12 0 -10 3 -9 9 1 6 9 11 10 15 2 4 -6 -3 -15 -16 -20 -13 -6 -17
-10 -10 -10 10 -1 10 -5 -2 -17 -20 -20 -20 -30 0 -38 18 -7 37 2 29 14 -5 7
24 38 32 32 8 -6 133 137 153 177 53 106 69 254 34 336 -8 21 -20 59 -24 84
-5 25 -11 56 -15 69 -12 36 13 27 107 -38 78 -54 168 -140 168 -160 0 -15 75
-38 107 -33 24 4 34 0 45 -16 7 -12 23 -21 36 -21 12 0 50 -14 83 -31 l61 -30
22 20 c31 29 52 26 86 -10 25 -28 37 -33 97 -39 67 -7 172 -43 270 -94 26 -14
60 -28 74 -31 32 -6 119 -91 119 -115 0 -9 25 -37 55 -61 30 -24 55 -47 55
-51 0 -4 8 -15 18 -25 62 -63 170 -222 242 -358 51 -97 96 -169 123 -197 7 -7
25 -29 40 -49 14 -19 44 -54 66 -76 26 -28 46 -63 61 -110 27 -80 81 -150 146
-188 33 -19 51 -39 64 -69 11 -22 38 -59 61 -81 36 -35 77 -105 83 -143 1 -7
21 -29 43 -50 22 -21 42 -47 45 -57 2 -11 14 -25 28 -32 14 -7 21 -13 16 -13
-5 0 -3 -7 4 -15 7 -8 21 -15 32 -15 10 0 17 -4 13 -9 -7 -12 44 -53 56 -45 5
3 9 -5 9 -17 0 -12 3 -19 6 -16 4 3 18 -3 32 -13 13 -11 33 -20 44 -20 11 0
17 -4 14 -9 -3 -5 0 -12 7 -15 46 -23 72 -46 77 -67 3 -13 10 -24 15 -24 30
-2 65 -17 65 -29 0 -14 21 -26 47 -26 21 0 46 -28 37 -41 -4 -7 -3 -9 4 -5 6
3 20 -6 31 -20 12 -15 21 -24 21 -20 0 4 7 0 16 -8 8 -9 23 -16 32 -16 15 -1
15 -2 0 -11 -24 -14 -23 -39 2 -39 11 0 20 -5 20 -10 0 -15 82 -100 92 -94 4
3 13 -6 20 -21 8 -18 17 -24 30 -20 24 8 71 -41 62 -67 -3 -10 -1 -18 5 -18 6
0 17 -12 25 -27 8 -16 15 -22 16 -14 0 11 3 11 15 1 8 -6 19 -8 26 -4 9 5 10
0 5 -20 -3 -14 -2 -26 2 -26 5 0 7 -12 4 -27 -4 -23 -2 -26 9 -16 7 7 28 13
47 13 30 0 33 -2 26 -22 -4 -13 -15 -30 -25 -39 -11 -9 -19 -19 -19 -22 0 -7
35 -1 50 8 6 3 10 1 10 -4 0 -6 6 -11 14 -11 8 0 21 -9 29 -20 8 -11 16 -17
20 -14 3 3 10 -4 17 -15 6 -12 18 -21 26 -21 24 0 44 -24 33 -41 -14 -22 -11
-26 22 -39 17 -7 34 -23 39 -35 5 -14 21 -25 42 -30 18 -4 27 -9 20 -12 -8 -3
-2 -14 18 -33 16 -15 30 -32 30 -37 0 -4 14 -14 30 -21 17 -8 30 -18 30 -23 0
-5 -9 -4 -20 3 -10 7 -23 9 -27 5 -4 -5 -1 -12 6 -17 12 -7 11 -11 -3 -25 -22
-23 -11 -33 12 -12 20 19 49 22 71 8 12 -8 9 -11 -12 -16 -19 -5 -27 -14 -27
-29 0 -21 26 -38 82 -52 18 -4 28 -13 28 -25 0 -10 5 -19 10 -19 6 0 10 6 10
13 0 8 4 7 10 -3 5 -8 20 -15 32 -15 18 0 22 -5 20 -23 -2 -12 2 -22 7 -22 6
0 11 -9 11 -20 0 -13 7 -20 20 -20 23 0 77 -25 98 -46 7 -8 18 -14 23 -14 5 0
11 -10 14 -23 4 -14 14 -23 28 -24 22 -2 50 -30 42 -43 -2 -4 11 -14 29 -22
19 -10 38 -29 46 -47 40 -98 39 -209 40 4317 l0 4312 -4715 0 c-3110 0 -4715
-4 -4715 -10 0 -6 -5 -10 -11 -10 -5 0 -7 5 -4 10 3 6 2 10 -4 10 -6 0 -17
-12 -25 -27 -8 -16 -15 -24 -16 -20 0 5 5 17 11 28 10 19 8 20 -28 18 -21 -2
-41 -8 -45 -14 -5 -6 -8 -5 -8 3 0 9 -20 12 -74 11 l-74 -1 2 -29z m37 7 c13
8 11 -10 -3 -24 -7 -7 -8 -12 -2 -12 6 0 16 10 22 23 7 12 11 15 11 7 -3 -32
3 -44 10 -21 8 30 31 40 31 14 0 -15 -2 -16 -10 -3 -8 12 -10 9 -10 -13 0 -24
-3 -27 -20 -22 -21 7 -27 -4 -11 -20 5 -6 12 -24 15 -40 6 -26 4 -31 -13 -31
-11 0 -17 5 -13 11 13 20 11 44 -4 59 -8 9 -17 33 -20 53 -2 21 -2 32 2 25 3
-6 10 -10 15 -6z m123 -35 c-2 -3 -12 3 -22 13 -16 17 -16 18 5 5 12 -7 20
-15 17 -18z m-64 -67 c-18 -21 -24 -10 -9 18 8 14 14 18 17 10 2 -7 -2 -19 -8
-28z m87 -43 c6 -23 33 -17 33 7 0 8 2 13 5 10 11 -10 -7 -58 -21 -58 -7 0
-16 11 -20 24 -3 14 -13 27 -22 29 -14 4 -14 5 1 6 11 0 21 -7 24 -18z m113
-65 c0 -3 -4 -8 -10 -11 -5 -3 -10 -1 -10 4 0 6 5 11 10 11 6 0 10 -2 10 -4z
m-128 -38 c-7 -7 -12 -8 -12 -2 0 14 12 26 19 19 2 -3 -1 -11 -7 -17z m168 -8
c0 -5 -4 -10 -10 -10 -5 0 -10 5 -10 10 0 6 5 10 10 10 6 0 10 -4 10 -10z
m-157 -67 c-5 -12 -7 -12 -14 -1 -13 20 -11 28 5 22 8 -3 12 -12 9 -21z m157
-33 c0 -5 -7 -10 -16 -10 -8 0 -13 -4 -10 -8 3 -5 -1 -9 -9 -9 -8 0 -17 7 -19
14 -3 8 -1 11 4 8 5 -3 18 -1 27 4 23 13 23 13 23 1z m47 -25 c-4 -8 -11 -15
-17 -15 -6 0 -6 7 2 20 14 22 24 19 15 -5z m-34 0 c-3 -9 -8 -14 -10 -11 -3 3
-2 9 2 15 9 16 15 13 8 -4z m23 -73 c1 -6 -2 -10 -7 -6 -5 3 -9 1 -9 -4 0 -5
-7 -9 -15 -9 -13 0 -13 2 0 17 9 10 13 25 9 36 -5 17 -4 17 7 -1 7 -11 14 -26
15 -33z m154 24 c0 -2 -8 -10 -17 -17 -16 -13 -17 -12 -4 4 13 16 21 21 21 13z
m-73 -12 c-3 -3 -12 -4 -19 -1 -8 3 -5 6 6 6 11 1 17 -2 13 -5z m-197 -44 c0
-5 -5 -10 -11 -10 -5 0 -7 5 -4 10 3 6 8 10 11 10 2 0 4 -4 4 -10z m90 -44 c0
-6 5 -4 10 4 8 12 10 11 10 -8 0 -20 -2 -22 -22 -11 l-23 12 19 -22 c20 -22
20 -22 0 -16 -19 7 -19 6 0 -9 11 -9 14 -16 8 -16 -7 0 -12 -10 -12 -22 0 -19
-2 -20 -10 -8 -8 13 -10 13 -10 -2 0 -9 -4 -19 -9 -22 -4 -3 -6 6 -3 19 2 14
9 25 14 25 6 0 5 7 -3 16 -10 13 -10 17 1 24 11 7 11 12 -3 33 -12 19 -13 27
-4 36 9 9 15 8 24 -6 7 -9 13 -22 13 -27z m144 19 c-5 -12 -34 -17 -34 -5 0
11 9 17 24 17 8 0 12 -6 10 -12z m-88 -31 c-6 -15 -4 -15 10 -3 16 13 16 12 5
-9 -7 -12 -16 -20 -22 -17 -13 8 -11 45 2 45 6 0 8 -7 5 -16z m64 -19 c-7 -8
-17 -15 -23 -15 -6 0 -2 7 9 15 25 19 30 19 14 0z m-43 -47 c-3 -7 -5 -2 -5
12 0 14 2 19 5 13 2 -7 2 -19 0 -25z m30 -63 c0 -8 -4 -12 -9 -9 -4 3 -8 9 -8
15 0 5 4 9 8 9 5 0 9 -7 9 -15z m-241 -32 c-11 -11 -19 6 -11 24 8 17 8 17 12
0 3 -10 2 -21 -1 -24z m147 11 c-4 -10 -9 -12 -15 -6 -12 12 -1 35 12 27 5 -3
6 -13 3 -21z m41 -26 c-5 -8 -1 -9 10 -5 10 4 15 3 11 -3 -11 -17 -34 -11 -32
9 0 11 5 17 9 15 5 -3 5 -10 2 -16z m-76 0 c-7 -19 -35 -21 -41 -3 -5 11 0 15
19 15 16 0 24 -5 22 -12z m95 -51 c3 -8 -1 -14 -8 -14 -7 0 -11 6 -8 14 3 7 6
13 8 13 2 0 5 -6 8 -13z m122 3 c3 -5 1 -10 -4 -10 -6 0 -11 5 -11 10 0 6 2
10 4 10 3 0 8 -4 11 -10z m-228 -19 c0 -11 -5 -18 -9 -15 -4 3 -5 11 -1 19 7
21 12 19 10 -4z m108 -21 c3 -5 1 -10 -4 -10 -6 0 -11 5 -11 10 0 6 2 10 4 10
3 0 8 -4 11 -10z m106 -4 c5 3 9 -5 9 -18 0 -18 -2 -20 -10 -8 -8 12 -10 10
-10 -9 0 -18 -4 -22 -20 -18 -11 3 -20 0 -20 -6 0 -7 -5 -5 -10 3 -5 8 -9 22
-9 30 0 13 1 13 7 0 4 -8 15 -16 25 -18 13 -2 17 4 18 30 0 18 3 27 6 20 2 -6
9 -10 14 -6z m-123 -31 c-3 -3 -9 2 -12 12 -6 14 -5 15 5 6 7 -7 10 -15 7 -18z
m19 -37 c-3 -8 -6 -5 -6 6 -1 11 2 17 5 13 3 -3 4 -12 1 -19z m30 -8 c-1 -12
-5 -16 -10 -11 -5 5 -6 14 -3 20 11 16 15 13 13 -9z m53 -20 c0 -5 -2 -10 -4
-10 -3 0 -8 5 -11 10 -3 6 -1 10 4 10 6 0 11 -4 11 -10z m185 -20 c3 -5 1 -10
-4 -10 -6 0 -11 5 -11 10 0 6 2 10 4 10 3 0 8 -4 11 -10z m-220 -48 c-2 -9 -4
-19 -5 -22 -1 -3 -1 -15 0 -27 1 -13 -3 -23 -9 -23 -5 0 -8 9 -6 20 2 11 -2
20 -8 20 -7 0 -5 5 5 10 10 7 14 17 10 32 -3 13 -1 19 6 15 5 -4 9 -15 7 -25z
m20 -51 c3 -5 2 -12 -3 -15 -5 -3 -9 1 -9 9 0 17 3 19 12 6z m26 -14 c-6 -8
-7 -18 -3 -22 4 -5 1 -5 -6 -1 -10 6 -10 11 -1 22 6 8 14 14 16 14 3 0 0 -6
-6 -13z m-9 -41 c7 4 8 2 4 -5 -4 -6 -12 -8 -18 -5 -7 5 -9 -6 -5 -32 6 -33 5
-35 -4 -14 -5 13 -7 36 -3 50 3 14 9 19 11 12 3 -6 10 -9 15 -6z m43 -13 c-11
-23 -12 -29 -14 -50 -2 -24 -16 -5 -16 23 -1 13 5 24 12 24 7 0 13 8 13 17 0
9 3 14 6 10 4 -3 3 -14 -1 -24z m-105 -59 c0 -14 -4 -23 -10 -19 -5 3 -10 15
-10 26 0 10 5 19 10 19 6 0 10 -12 10 -26z m17 -11 c-3 -10 -5 -4 -5 12 0 17
2 24 5 18 2 -7 2 -21 0 -30z m173 -107 c0 -11 -19 -15 -25 -6 -3 5 1 10 9 10
9 0 16 -2 16 -4z m10 -124 c0 -15 -11 -21 -27 -15 -12 5 -12 7 -1 14 17 11 28
11 28 1z m-36 -47 c-4 -8 -8 -15 -10 -15 -2 0 -4 7 -4 15 0 8 4 15 10 15 5 0
7 -7 4 -15z m66 -41 c0 -8 -5 -12 -10 -9 -6 4 -8 11 -5 16 9 14 15 11 15 -7z
m-33 -51 c-3 -10 -5 -4 -5 12 0 17 2 24 5 18 2 -7 2 -21 0 -30z m-20 -5 c-3
-8 -6 -5 -6 6 -1 11 2 17 5 13 3 -3 4 -12 1 -19z m16 -37 c3 -14 1 -18 -9 -14
-15 6 -18 16 -7 26 9 10 10 9 16 -12z m50 -6 c-3 -9 -8 -14 -10 -11 -3 3 -2 9
2 15 9 16 15 13 8 -4z m67 -20 c0 -8 -4 -15 -10 -15 -5 0 -7 7 -4 15 4 8 8 15
10 15 2 0 4 -7 4 -15z m-70 -215 c0 -5 -7 -10 -15 -10 -8 0 -15 5 -15 10 0 6
7 10 15 10 8 0 15 -4 15 -10z m17 -25 c0 -17 -13 -20 -21 -6 -4 5 0 12 6 14 7
3 13 6 14 6 0 1 1 -6 1 -14z m108 -55 c4 -6 -1 -7 -11 -3 -13 5 -15 3 -9 -7 5
-9 4 -11 -3 -6 -7 4 -12 11 -12 17 0 12 27 12 35 -1z m239 -223 c4 4 4 -1 0
-10 -3 -10 -7 -17 -8 -15 -1 2 -8 12 -16 23 -14 18 -13 19 1 8 9 -7 19 -10 23
-6z m-63 -24 c1 -16 3 -38 4 -50 1 -13 -2 -23 -6 -23 -8 0 -13 23 -10 43 0 4
-3 7 -9 7 -5 0 -10 11 -10 25 0 36 30 33 31 -2z m3580 -228 l10 -20 -16 20
c-9 11 -21 29 -26 40 l-10 20 16 -20 c9 -11 21 -29 26 -40z m-3591 -15 c0 -5
-5 -10 -11 -10 -5 0 -7 5 -4 10 3 6 8 10 11 10 2 0 4 -4 4 -10z m3077 -446
c-3 -3 -12 -4 -19 -1 -8 3 -5 6 6 6 11 1 17 -2 13 -5z m-57 -104 c0 -5 -5 -10
-11 -10 -5 0 -7 5 -4 10 3 6 8 10 11 10 2 0 4 -4 4 -10z m1115 -240 c-3 -5
-12 -10 -18 -10 -7 0 -6 4 3 10 19 12 23 12 15 0z m-4155 -21 c0 -16 -5 -20
-19 -16 -13 3 -18 1 -14 -9 2 -7 11 -10 19 -7 8 3 14 1 14 -5 0 -6 -8 -9 -17
-8 -10 2 -21 -1 -24 -6 -3 -5 -6 5 -6 22 0 22 5 30 19 30 10 0 18 5 18 10 0 6
2 10 5 10 3 0 5 -10 5 -21z m4203 -164 c22 -4 26 -9 18 -19 -6 -7 -8 -15 -5
-19 6 -6 -63 1 -116 13 l-35 7 43 8 c23 4 42 11 42 16 0 5 6 7 13 5 6 -3 25
-7 40 -11z m54 -31 c-3 -3 -12 -4 -19 -1 -8 3 -5 6 6 6 11 1 17 -2 13 -5z
m-110 -30 c-3 -3 -12 -4 -19 -1 -8 3 -5 6 6 6 11 1 17 -2 13 -5z m-4197 -150
c0 -2 -11 -4 -25 -4 -14 0 -25 4 -25 9 0 4 11 6 25 3 14 -2 25 -6 25 -8z
m4193 9 c-7 -2 -19 -2 -25 0 -7 3 -2 5 12 5 14 0 19 -2 13 -5z m103 -1 c-9 -8
-76 -9 -76 -1 0 4 18 7 41 7 23 1 38 -2 35 -6z m-94 -72 c26 -7 45 -16 42 -21
-9 -15 13 -10 29 6 13 13 16 13 27 0 7 -8 17 -15 22 -15 6 0 5 7 -2 15 -17 20
12 32 48 19 35 -12 38 -29 6 -32 -36 -3 -48 -12 -35 -25 15 -15 14 -23 -5 -41
-14 -15 -14 -16 0 -16 19 0 21 -16 4 -24 -7 -3 -1 -3 14 0 21 5 30 2 35 -12 4
-10 2 -19 -5 -22 -6 -2 -8 -10 -5 -18 3 -8 0 -14 -6 -14 -6 0 -11 6 -11 14 0
14 -44 31 -69 27 -8 -2 -21 5 -28 15 -12 17 -13 17 -13 -2 -1 -18 -2 -18 -19
3 -10 12 -29 23 -42 25 -31 4 -72 45 -62 61 5 9 3 9 -9 0 -12 -11 -19 -9 -39
8 -13 11 -31 18 -41 16 -10 -3 -21 -1 -24 4 -3 5 0 9 6 9 6 0 9 4 6 9 -4 5 2
7 13 4 10 -2 25 2 32 11 15 18 53 17 131 -4z m-4152 -56 c0 -2 -7 -4 -15 -4
-8 0 -15 4 -15 10 0 5 7 7 15 4 8 -4 15 -8 15 -10z m-7 -41 c-7 -2 -19 -2 -25
0 -7 3 -2 5 12 5 14 0 19 -2 13 -5z m-23 -217 c0 -3 -4 -8 -10 -11 -5 -3 -10
-1 -10 4 0 6 5 11 10 11 6 0 10 -2 10 -4z m3920 -86 c0 -5 -2 -10 -4 -10 -3 0
-8 5 -11 10 -3 6 -1 10 4 10 6 0 11 -4 11 -10z m27 -107 c-3 -2 -50 -11 -104
-19 -54 -7 -116 -22 -138 -33 -37 -18 -41 -18 -46 -3 -4 9 -1 19 5 21 6 2 15
10 19 17 4 8 17 14 27 14 10 0 21 4 24 9 4 5 51 8 106 6 88 -3 100 -1 101 13
1 14 2 14 6 -1 3 -10 2 -21 0 -24z m57 6 c-7 -11 -44 -12 -44 -1 0 4 5 13 12
20 13 13 42 -4 32 -19z m38 14 c-6 -2 -10 -9 -6 -14 3 -5 0 -9 -5 -9 -12 0
-14 13 -4 23 3 4 11 7 17 6 6 0 5 -3 -2 -6z m-3905 -65 c-3 -8 -6 -5 -6 6 -1
11 2 17 5 13 3 -3 4 -12 1 -19z m4206 -40 c-4 -7 -7 -22 -6 -33 1 -16 1 -16
-3 -2 -3 9 -11 17 -17 17 -7 0 -3 7 7 15 24 18 30 19 19 3z m-4110 -5 c-7 -2
-21 -2 -30 0 -10 3 -4 5 12 5 17 0 24 -2 18 -5z m4090 -45 c7 -24 1 -38 -14
-38 -6 0 -7 6 -3 13 4 6 4 9 -1 5 -4 -4 -14 -3 -22 3 -10 9 -10 15 -2 25 17
21 36 17 42 -8z m-4 -48 c4 0 7 -9 7 -20 0 -11 -6 -20 -13 -20 -7 0 -13 9 -13
21 0 11 -4 17 -10 14 -5 -3 -10 -1 -10 5 0 7 7 9 16 6 9 -3 19 -6 23 -6z
m-4439 -34 c0 -2 -7 -7 -16 -10 -8 -3 -12 -2 -9 4 6 10 25 14 25 6z m-40 -16
c0 -5 -4 -10 -10 -10 -5 0 -10 5 -10 10 0 6 5 10 10 10 6 0 10 -4 10 -10z
m4365 -174 c-10 -6 -26 -18 -36 -28 -9 -9 -20 -14 -23 -10 -12 11 -5 20 24 32
16 7 27 16 24 21 -3 5 3 6 12 2 17 -6 17 -7 -1 -17z m-4345 -35 c0 -6 -4 -13
-10 -16 -5 -3 -10 1 -10 9 0 9 5 16 10 16 6 0 10 -4 10 -9z m4260 -83 c0 -7
-5 -6 -13 1 -8 6 -17 8 -21 4 -4 -4 -4 0 0 10 5 14 9 15 20 6 8 -6 14 -16 14
-21z m-4400 -118 c0 -7 6 -7 18 -1 26 14 50 -2 33 -22 -6 -8 -8 -17 -3 -19 6
-2 6 -13 1 -27 -9 -23 -10 -23 -28 -6 -19 16 -20 16 -24 -17 l-4 -33 -1 38
c-2 30 -6 37 -22 37 -16 0 -20 6 -18 30 2 24 7 30 25 30 13 0 23 -5 23 -10z
m94 -15 c-4 -8 -8 -15 -10 -15 -2 0 -4 7 -4 15 0 8 4 15 10 15 5 0 7 -7 4 -15z
m4024 -50 c-3 -3 -9 2 -12 12 -6 14 -5 15 5 6 7 -7 10 -15 7 -18z m-4145 -272
c-5 -12 8 -18 30 -14 5 1 6 -3 2 -8 -3 -6 -12 -8 -20 -4 -11 4 -15 -2 -15 -21
0 -14 -4 -26 -10 -26 -5 0 -10 20 -10 43 0 31 4 44 14 44 8 0 12 -6 9 -14z
m-73 -33 c0 -5 -3 -10 -7 -10 -5 0 -18 -3 -30 -6 -17 -5 -23 -2 -23 10 0 11 9
16 30 16 17 0 30 -4 30 -10z m4593 -50 c3 -11 1 -20 -4 -20 -5 0 -9 9 -9 20 0
11 2 20 4 20 2 0 6 -9 9 -20z m-4558 -128 c-10 -9 -15 -12 -11 -5 4 7 -2 17
-13 22 -13 7 -17 17 -14 31 5 20 6 19 31 -5 25 -25 25 -26 7 -43z m-75 -127
c10 -12 10 -15 -4 -15 -9 0 -16 7 -16 15 0 8 2 15 4 15 2 0 9 -7 16 -15z
m-280 -684 c0 -5 2 -16 5 -24 5 -10 -1 -13 -25 -9 -39 6 -44 42 -5 42 14 0 25
-4 25 -9z m8200 -1201 c0 -5 -5 -10 -11 -10 -5 0 -7 5 -4 10 3 6 8 10 11 10 2
0 4 -4 4 -10z"/>
<path d="M5425 6600 c3 -5 13 -10 21 -10 8 0 12 5 9 10 -3 6 -13 10 -21 10 -8
0 -12 -4 -9 -10z"/>
<path d="M5515 6270 c3 -5 8 -10 11 -10 2 0 4 5 4 10 0 6 -5 10 -11 10 -5 0
-7 -4 -4 -10z"/>
<path d="M960 5180 c-20 -13 -20 -36 1 -36 10 0 16 2 14 5 -3 2 0 10 6 17 13
15 -2 26 -21 14z"/>
<path d="M146 9945 c4 -8 10 -12 15 -9 11 6 2 24 -11 24 -5 0 -7 -7 -4 -15z"/>
<path d="M240 9891 c0 -6 4 -13 10 -16 6 -3 7 1 4 9 -7 18 -14 21 -14 7z"/>
<path d="M189 9853 c-13 -16 -12 -17 4 -4 16 13 21 21 13 21 -2 0 -10 -8 -17
-17z"/>
<path d="M264 9821 c1 -18 5 -27 14 -24 16 7 15 21 -2 38 -11 11 -13 9 -12
-14z"/>
<path d="M341 9774 c0 -11 3 -14 6 -6 3 7 2 16 -1 19 -3 4 -6 -2 -5 -13z"/>
<path d="M267 9746 c-9 -24 -9 -28 3 -21 6 3 10 -2 11 -12 0 -10 3 -13 5 -7 3
6 1 21 -4 34 -8 20 -9 21 -15 6z"/>
<path d="M371 9730 c-1 -8 -4 -26 -7 -40 -5 -22 -4 -23 6 -7 6 10 9 28 7 40
-2 12 -5 15 -6 7z"/>
<path d="M303 9700 c-3 -11 -9 -17 -14 -14 -5 3 -9 0 -9 -5 0 -22 28 -10 32
14 6 30 -2 34 -9 5z"/>
<path d="M305 9640 c3 -5 8 -10 11 -10 2 0 4 5 4 10 0 6 -5 10 -11 10 -5 0 -7
-4 -4 -10z"/>
<path d="M463 9590 c-6 -22 -19 -26 -25 -8 -3 7 -7 2 -10 -10 -4 -16 -1 -25
13 -32 16 -9 19 -7 19 9 0 11 9 26 20 34 18 13 19 15 5 21 -12 4 -19 0 -22
-14z"/>
<path d="M458 9516 c-10 -7 -18 -16 -18 -20 0 -11 21 -6 36 8 26 27 13 36 -18
12z"/>
<path d="M380 9490 c-8 -5 -12 -11 -9 -14 2 -3 11 -1 19 4 8 5 12 11 9 14 -2
3 -11 1 -19 -4z"/>
<path d="M394 9459 c-3 -6 -1 -16 5 -22 9 -9 10 -7 5 7 -6 15 -4 17 6 11 9 -5
11 -4 6 3 -9 15 -13 15 -22 1z"/>
<path d="M420 9410 c0 -5 7 -7 15 -4 8 4 15 8 15 10 0 2 -7 4 -15 4 -8 0 -15
-4 -15 -10z"/>
<path d="M490 9380 l-25 -8 28 -1 c15 -1 27 4 27 9 0 6 -1 10 -2 9 -2 -1 -14
-5 -28 -9z"/>
<path d="M440 9346 c6 -6 18 -5 32 2 22 10 21 10 -9 9 -19 -1 -28 -6 -23 -11z"/>
<path d="M633 9031 c1 -13 7 -17 21 -13 11 3 15 7 8 10 -7 2 -10 8 -6 13 3 5
-2 9 -10 9 -8 0 -14 -8 -13 -19z"/>
<path d="M230 9015 c-7 -9 -11 -17 -9 -20 3 -2 10 5 17 15 14 24 10 26 -8 5z"/>
<path d="M610 8960 c-12 -7 -10 -9 8 -7 12 0 22 5 22 9 0 11 -12 10 -30 -2z"/>
<path d="M616 8923 c-6 -14 -5 -15 5 -6 7 7 10 15 7 18 -3 3 -9 -2 -12 -12z"/>
<path d="M657 8923 c-4 -3 -7 -21 -7 -40 0 -23 -5 -33 -16 -33 -8 0 -12 -5 -8
-11 11 -18 31 11 37 54 6 38 5 42 -6 30z"/>
<path d="M490 8901 c0 -7 -4 -10 -8 -7 -5 3 -9 -2 -9 -10 0 -13 2 -13 16 0 8
9 12 19 8 22 -4 4 -7 2 -7 -5z"/>
<path d="M594 8873 c-1 -13 -1 -23 0 -21 1 2 7 10 14 19 10 13 10 18 0 22 -8
3 -14 -5 -14 -20z"/>
<path d="M506 8831 c-3 -5 1 -12 10 -15 22 -8 25 -4 9 11 -8 7 -16 9 -19 4z"/>
<path d="M681 8784 c0 -11 3 -14 6 -6 3 7 2 16 -1 19 -3 4 -6 -2 -5 -13z"/>
<path d="M752 8660 c0 -14 2 -19 5 -12 2 6 2 18 0 25 -3 6 -5 1 -5 -13z"/>
<path d="M810 8360 c0 -5 5 -10 10 -10 6 0 10 5 10 10 0 6 -4 10 -10 10 -5 0
-10 -4 -10 -10z"/>
<path d="M866 8342 c-3 -5 1 -9 9 -9 8 0 12 4 9 9 -3 4 -7 8 -9 8 -2 0 -6 -4
-9 -8z"/>
<path d="M842 8305 c0 -16 2 -22 5 -12 2 9 2 23 0 30 -3 6 -5 -1 -5 -18z"/>
<path d="M770 8229 c0 -5 5 -7 10 -4 6 3 10 8 10 11 0 2 -4 4 -10 4 -5 0 -10
-5 -10 -11z"/>
<path d="M975 8060 c3 -5 8 -10 11 -10 2 0 4 5 4 10 0 6 -5 10 -11 10 -5 0 -7
-4 -4 -10z"/>
<path d="M918 8053 c7 -3 16 -2 19 1 4 3 -2 6 -13 5 -11 0 -14 -3 -6 -6z"/>
<path d="M1050 7970 c0 -5 9 -10 20 -10 11 0 20 5 20 10 0 6 -9 10 -20 10 -11
0 -20 -4 -20 -10z"/>
<path d="M1115 7820 c-18 -8 -17 -9 8 -9 16 -1 26 3 22 9 -3 6 -7 10 -8 9 -1
0 -11 -4 -22 -9z"/>
<path d="M940 7741 c0 -6 4 -13 10 -16 6 -3 7 1 4 9 -7 18 -14 21 -14 7z"/>
<path d="M940 7701 c0 -11 29 -35 35 -29 2 2 -4 12 -15 21 -11 9 -20 13 -20 8z"/>
<path d="M1105 7650 c-3 -5 -1 -10 4 -10 6 0 11 5 11 10 0 6 -2 10 -4 10 -3 0
-8 -4 -11 -10z"/>
<path d="M1034 7275 c-3 -8 -4 -20 -2 -27 3 -7 7 -1 10 15 6 29 1 36 -8 12z"/>
<path d="M1092 7250 c0 -14 2 -19 5 -12 2 6 2 18 0 25 -3 6 -5 1 -5 -13z"/>
<path d="M1083 7084 c-3 -8 -1 -20 6 -27 8 -8 11 -4 11 16 0 30 -7 35 -17 11z"/>
<path d="M1075 7010 c-3 -5 1 -10 9 -10 9 0 16 5 16 10 0 6 -4 10 -9 10 -6 0
-13 -4 -16 -10z"/>
<path d="M5170 6966 c7 -7 13 -7 20 0 6 6 3 10 -10 10 -13 0 -16 -4 -10 -10z"/>
<path d="M5265 6971 c-6 -11 13 -26 22 -17 4 3 1 6 -6 6 -7 0 -9 5 -6 10 3 6
4 10 1 10 -3 0 -7 -4 -11 -9z"/>
<path d="M5305 6810 c-3 -5 -1 -10 4 -10 6 0 11 5 11 10 0 6 -2 10 -4 10 -3 0
-8 -4 -11 -10z"/>
<path d="M4995 6717 c-13 -16 -13 -76 0 -81 7 -2 11 15 12 45 0 27 0 49 -1 49
0 -1 -5 -6 -11 -13z"/>
<path d="M4742 6680 c-23 -3 -48 -12 -54 -18 -7 -7 -19 -12 -28 -12 -8 0 -27
-11 -42 -25 -27 -25 -44 -33 -34 -16 3 4 -6 6 -20 3 -29 -5 -29 -35 0 -40 11
-3 16 0 12 7 -4 6 0 11 8 11 9 0 16 -6 16 -12 0 -9 3 -9 9 1 8 12 13 12 24 3
8 -7 36 -14 62 -16 44 -3 70 -20 59 -38 -3 -4 -14 -8 -25 -8 -26 0 -137 -55
-167 -83 -21 -20 -52 -68 -52 -81 0 -6 6 -4 55 15 37 14 77 18 90 9 23 -16 55
-18 55 -3 0 13 2 13 15 -1 23 -23 19 -30 -27 -49 -35 -14 -38 -16 -13 -13 l30
5 -27 -12 c-16 -6 -28 -14 -28 -19 0 -14 37 -9 94 12 70 27 109 57 103 81 -3
12 0 16 9 12 8 -3 17 2 20 11 3 9 10 14 14 11 16 -10 18 25 5 82 -9 36 -10 62
-4 68 12 12 12 28 0 21 -12 -8 -21 18 -21 56 0 17 -3 28 -7 25 -3 -4 -13 -1
-21 5 -17 14 -52 17 -110 8z m-57 -200 c-3 -5 -12 -10 -18 -10 -7 0 -25 -7
-40 -15 -15 -8 -25 -9 -21 -4 6 11 61 38 77 39 5 0 5 -4 2 -10z"/>
<path d="M4925 6629 c-4 -6 -5 -12 -2 -15 2 -3 7 2 10 11 7 17 1 20 -8 4z"/>
<path d="M4292 6527 c-20 -21 -21 -25 -6 -43 8 -10 13 -14 10 -8 -3 6 4 25 14
42 23 37 13 42 -18 9z"/>
<path d="M1092 6370 c0 -19 2 -27 5 -17 2 9 2 25 0 35 -3 9 -5 1 -5 -18z"/>
<path d="M1130 6320 c0 -5 5 -10 10 -10 6 0 10 5 10 10 0 6 -4 10 -10 10 -5 0
-10 -4 -10 -10z"/>
<path d="M1097 6284 c6 -16 53 -19 53 -4 0 6 -6 10 -12 11 -7 0 -21 2 -30 4
-11 2 -15 -2 -11 -11z"/>
<path d="M4292 6283 c-6 -3 -9 -9 -6 -14 5 -9 16 -74 17 -106 0 -7 6 -14 13
-17 9 -3 11 5 7 32 -3 20 -6 47 -7 59 -1 11 -4 19 -8 16 -5 -2 -8 0 -8 6 0 5
5 11 12 13 7 3 8 7 3 10 -6 3 -16 3 -23 1z"/>
<path d="M4212 6261 c-21 -13 -17 -69 8 -146 6 -18 10 -37 9 -41 -1 -5 0 -38
1 -74 l2 -65 8 45 c35 197 37 251 12 273 -21 19 -22 20 -40 8z"/>
<path d="M4306 6084 c-30 -73 -36 -113 -20 -129 27 -27 39 -8 39 61 0 38 5 68
12 72 8 5 8 11 -1 23 -10 15 -14 11 -30 -27z"/>
<path d="M1185 5800 c3 -5 8 -10 11 -10 2 0 4 5 4 10 0 6 -5 10 -11 10 -5 0
-7 -4 -4 -10z"/>
<path d="M1180 5770 c-23 -7 -23 -8 -3 -9 12 -1 25 4 28 9 3 6 5 10 3 9 -2 -1
-14 -5 -28 -9z"/>
<path d="M4680 5530 c0 -5 5 -10 11 -10 5 0 7 5 4 10 -3 6 -8 10 -11 10 -2 0
-4 -4 -4 -10z"/>
<path d="M933 5470 c0 -25 2 -35 4 -22 2 12 2 32 0 45 -2 12 -4 2 -4 -23z"/>
<path d="M944 5403 c-16 -5 -5 -43 12 -43 8 0 14 9 14 19 0 22 -9 30 -26 24z"/>
<path d="M920 5290 c0 -5 5 -10 10 -10 6 0 10 5 10 10 0 6 -4 10 -10 10 -5 0
-10 -4 -10 -10z"/>
<path d="M4526 5219 c-14 -14 -17 -26 -12 -53 4 -20 10 -36 14 -36 4 0 8 -19
9 -43 1 -38 29 -124 38 -116 2 2 -3 29 -11 59 -8 30 -13 73 -10 95 3 22 2 56
-2 76 -7 35 -8 35 -26 18z"/>
<path d="M4640 4863 c0 -6 8 -17 18 -24 16 -13 16 -13 2 6 -8 11 -16 22 -17
24 -2 2 -3 0 -3 -6z"/>
<path d="M4670 4816 c0 -2 8 -10 18 -17 15 -13 16 -12 3 4 -13 16 -21 21 -21
13z"/>
<path d="M673 4645 c0 -16 -5 -40 -11 -52 -11 -20 -10 -23 8 -23 22 0 24 20 9
75 l-8 30 2 -30z"/>
<path d="M5375 4660 c-3 -5 1 -10 10 -10 9 0 13 5 10 10 -3 6 -8 10 -10 10 -2
0 -7 -4 -10 -10z"/>
<path d="M5257 4583 c-16 -16 -6 -33 19 -31 28 3 56 38 30 38 -8 0 -18 -5 -22
-11 -5 -8 -8 -8 -13 0 -4 6 -10 8 -14 4z"/>
<path d="M650 4540 c0 -5 7 -10 15 -10 8 0 15 5 15 10 0 6 -7 10 -15 10 -8 0
-15 -4 -15 -10z"/>
<path d="M5260 4490 c-9 -6 -10 -10 -3 -10 6 0 15 5 18 10 8 12 4 12 -15 0z"/>
<path d="M5260 4461 c0 -6 5 -13 10 -16 6 -3 10 1 10 9 0 9 -4 16 -10 16 -5 0
-10 -4 -10 -9z"/>
<path d="M481 4096 c-10 -12 -8 -13 8 -9 12 3 21 9 21 14 0 14 -16 11 -29 -5z"/>
<path d="M478 4063 c7 -3 16 -2 19 1 4 3 -2 6 -13 5 -11 0 -14 -3 -6 -6z"/>
<path d="M220 3440 c-18 -12 -2 -12 25 0 13 6 15 9 5 9 -8 0 -22 -4 -30 -9z"/>
<path d="M245 3420 c3 -5 8 -10 11 -10 2 0 4 5 4 10 0 6 -5 10 -11 10 -5 0 -7
-4 -4 -10z"/>
<path d="M6895 3035 c-3 -8 -7 -22 -10 -31 -3 -9 -18 -107 -35 -219 -30 -209
-59 -350 -84 -420 -9 -22 -15 -48 -16 -58 0 -10 -16 -57 -36 -103 -32 -74 -36
-91 -30 -137 7 -65 52 -222 164 -577 l87 -275 -1 -141 c0 -116 -4 -154 -23
-215 -48 -158 -47 -138 -7 -221 42 -88 43 -98 15 -184 -20 -61 -20 -67 -5
-112 8 -26 20 -94 26 -152 l10 -105 47 -42 46 -43 1479 0 1478 0 0 563 c0 310
-3 567 -7 570 -3 4 -12 2 -19 -4 -8 -6 -28 -13 -46 -16 -33 -4 -33 -4 -33 39
0 34 -3 43 -17 42 -9 -1 -34 14 -55 32 -21 19 -48 34 -60 34 -12 0 -25 4 -28
10 -3 5 -17 10 -29 10 -16 0 -26 7 -29 21 -3 12 -10 18 -16 14 -16 -9 -26 24
-12 38 6 6 11 17 11 25 0 15 -40 7 -53 -12 -5 -6 -6 -1 -2 11 5 18 3 22 -10
17 -9 -4 -23 0 -33 8 -9 8 -25 18 -36 22 -14 5 -17 14 -14 36 3 22 1 27 -7 20
-12 -10 -55 29 -55 50 0 6 -9 10 -21 10 -28 0 -79 31 -79 48 0 19 -39 52 -61
52 -10 0 -21 5 -24 10 -3 5 -20 10 -36 10 -17 0 -37 6 -44 13 -36 32 -45 37
-45 27 0 -5 -14 -10 -31 -10 -26 0 -29 3 -24 20 5 16 2 20 -19 20 -14 0 -28 5
-31 10 -3 6 -18 10 -32 10 -17 0 -23 4 -20 14 6 16 -59 30 -165 34 -32 2 -38
6 -39 25 0 12 -3 17 -5 10 -7 -16 -65 -5 -80 15 -6 8 -15 12 -20 9 -6 -3 -25
10 -44 29 -35 36 -88 64 -121 64 -11 0 -19 4 -19 9 0 9 -9 16 -94 70 -20 13
-44 37 -52 53 -10 19 -19 27 -25 21 -6 -6 -23 3 -45 24 -30 28 -106 76 -124
78 -3 0 -16 8 -28 17 -22 15 -23 17 -5 27 17 10 17 10 -2 11 -14 0 -16 3 -7 9
10 6 10 11 -3 21 -13 11 -21 11 -36 2 -22 -14 -39 -8 -39 14 0 8 -9 14 -20 14
-11 0 -20 4 -20 8 0 5 -11 14 -25 20 -14 6 -25 19 -25 28 0 10 -5 14 -15 10
-9 -3 -24 3 -35 14 -11 11 -32 21 -46 22 -15 2 -29 8 -31 15 -3 7 -11 13 -18
13 -7 0 -32 18 -55 40 -23 22 -46 40 -51 40 -17 0 -9 28 12 42 20 12 20 16 8
36 -8 12 -30 27 -50 32 -21 6 -41 20 -49 34 -7 14 -26 30 -42 35 -31 11 -60
35 -52 44 3 2 -6 14 -20 25 -25 19 -25 20 -9 52 9 18 29 38 44 44 16 6 29 14
29 18 0 10 -6 10 -28 -1 -28 -14 -65 -29 -87 -34 -11 -3 -72 -19 -135 -36
-135 -36 -159 -38 -202 -11 -38 23 -179 190 -172 202 7 10 -14 38 -28 38 -5 0
-11 -7 -13 -15z m2552 -2737 c-3 -8 -6 -5 -6 6 -1 11 2 17 5 13 3 -3 4 -12 1
-19z"/>
<path d="M8078 2830 c-7 -24 -3 -38 8 -28 3 4 4 17 2 30 l-3 23 -7 -25z"/>
<path d="M3538 2723 c-7 -24 -17 -43 -22 -43 -5 0 -7 -3 -3 -6 7 -7 -15 -34
-24 -29 -3 2 -32 -27 -64 -65 l-60 -68 -74 2 c-73 2 -76 1 -110 -34 -54 -53
-158 -167 -226 -245 -101 -118 -325 -336 -337 -329 -7 4 -8 3 -4 -4 4 -7 2
-12 -4 -12 -6 0 -33 -21 -60 -46 -27 -26 -60 -54 -72 -62 -13 -9 -25 -18 -28
-21 -11 -12 -50 -31 -65 -31 -8 0 -15 -5 -15 -11 0 -5 -5 -7 -11 -3 -6 4 -28
-12 -50 -34 -21 -23 -56 -53 -79 -67 -22 -14 -40 -30 -40 -36 0 -5 -4 -8 -8
-5 -10 6 -52 -38 -52 -53 0 -5 -9 -13 -20 -16 -11 -4 -17 -11 -14 -17 4 -7 2
-8 -4 -4 -6 3 -45 -28 -89 -72 -43 -42 -80 -78 -83 -79 -28 -9 -39 -17 -34
-24 3 -5 -1 -9 -8 -9 -8 0 -20 -9 -28 -19 -7 -11 -17 -18 -20 -16 -4 3 -15 -4
-25 -15 -10 -11 -24 -20 -30 -20 -7 0 -20 -11 -29 -25 -9 -14 -22 -24 -28 -22
-7 1 -12 -4 -13 -12 0 -8 -16 -19 -35 -23 -19 -5 -39 -15 -45 -22 -5 -7 -22
-16 -37 -19 -15 -4 -29 -16 -33 -26 -4 -12 -12 -17 -24 -14 -9 2 -23 -3 -30
-11 -8 -9 -18 -16 -23 -16 -5 0 -21 -11 -36 -25 -15 -14 -39 -31 -54 -38 -16
-6 -28 -15 -28 -19 0 -5 -7 -8 -15 -8 -8 0 -15 -7 -15 -16 0 -8 -4 -12 -10 -9
-5 3 -10 1 -10 -4 0 -6 -5 -11 -12 -11 -6 0 -26 -11 -44 -25 -18 -14 -38 -25
-45 -25 -7 0 -9 -3 -6 -7 9 -9 -12 -33 -30 -33 -14 0 -27 -9 -69 -47 -14 -13
-30 -23 -37 -23 -7 0 -23 -8 -37 -17 -14 -10 -39 -16 -60 -14 -24 1 -42 -4
-57 -19 -13 -11 -23 -17 -23 -13 0 4 -17 -9 -37 -28 -61 -57 -141 -109 -169
-109 -8 0 -14 -4 -14 -10 0 -5 -19 -22 -42 -36 -24 -15 -49 -35 -55 -45 -9
-12 -27 -17 -59 -17 -26 0 -50 -5 -53 -11 -10 -16 -39 -7 -71 24 -16 15 -41
30 -56 31 -14 2 -38 11 -52 20 -15 10 -35 19 -44 19 -23 2 -18 -3 24 -23 21
-11 32 -23 30 -35 -2 -9 2 -17 8 -17 5 0 10 5 10 10 0 6 13 10 29 10 21 0 36
-8 51 -30 l21 -30 -36 -31 c-27 -24 -35 -38 -31 -53 5 -21 5 -21 -12 0 -9 12
-23 30 -30 40 -11 17 -12 17 -5 -6 3 -14 7 -41 7 -60 0 -19 4 -38 9 -41 33
-23 -42 -56 -88 -39 -21 8 -32 1 -80 -47 -17 -18 -38 -33 -47 -33 -9 0 -18 -7
-22 -15 -3 -9 -19 -15 -41 -15 l-35 0 0 -55 0 -55 130 0 130 0 0 25 c0 16 6
25 15 25 10 0 15 10 15 30 0 47 20 80 48 80 17 0 23 -4 18 -15 -3 -8 -2 -15 3
-15 5 0 1 -20 -7 -44 -13 -35 -20 -42 -36 -38 -15 4 -18 2 -13 -12 4 -10 7
-22 7 -27 0 -5 690 -9 1741 -9 l1741 0 -7 88 c-8 101 -10 212 -5 297 4 58 2
64 -55 160 -94 163 -96 166 -96 258 0 91 10 142 54 262 16 44 29 87 29 95 0 8
6 22 13 30 7 8 18 35 25 60 7 25 15 50 19 55 4 6 8 24 9 40 2 48 25 159 35
172 5 7 6 17 2 23 -4 6 -2 17 4 24 7 8 14 29 16 47 3 19 9 50 15 69 12 42 13
102 2 115 -5 6 -17 44 -27 85 -10 41 -24 84 -32 95 -7 11 -13 28 -13 38 0 10
-3 16 -7 14 -5 -3 -9 16 -10 41 -1 25 -6 48 -10 51 -5 3 -8 13 -8 21 1 8 -3
21 -8 27 -5 7 -6 20 -3 29 4 9 1 23 -5 30 -6 8 -9 25 -7 39 3 14 1 25 -4 25
-5 0 -8 8 -7 18 3 26 -12 132 -20 132 -3 0 -7 17 -8 37 -2 27 1 33 7 23 5 -8
10 -10 10 -5 0 14 -15 36 -26 38 -5 1 -9 21 -8 44 0 23 -2 40 -6 38 -12 -7
-20 22 -13 42 4 11 3 14 -5 9 -11 -7 -17 13 -13 38 1 5 -5 6 -13 3 -11 -4 -16
3 -18 25 -2 24 -8 32 -25 33 -18 1 -24 -7 -35 -42z m-3096 -2410 c-5 -26 -15
-23 -17 6 -1 10 4 18 10 18 7 0 10 -10 7 -24z m-52 -28 c-7 -9 -15 -13 -17
-11 -7 7 7 26 19 26 6 0 6 -6 -2 -15z m70 -49 c0 -2 -11 -11 -24 -19 -24 -16
-27 -12 -17 21 1 4 41 2 41 -2z m35 -126 c3 -5 -1 -10 -10 -10 -9 0 -13 5 -10
10 3 6 8 10 10 10 2 0 7 -4 10 -10z"/>
<path d="M8860 1891 c0 -13 29 -35 37 -27 3 3 1 6 -5 6 -7 0 -12 7 -12 15 0 8
-4 15 -10 15 -5 0 -10 -4 -10 -9z"/>
<path d="M9370 1865 c0 -8 5 -15 10 -15 6 0 10 7 10 15 0 8 -4 15 -10 15 -5 0
-10 -7 -10 -15z"/>
<path d="M9010 1806 c0 -2 9 -6 20 -9 11 -3 18 -1 14 4 -5 9 -34 13 -34 5z"/>
<path d="M9480 1670 c0 -5 4 -10 9 -10 6 0 13 5 16 10 3 6 -1 10 -9 10 -9 0
-16 -4 -16 -10z"/>
<path d="M160 630 c0 -5 4 -10 9 -10 6 0 13 5 16 10 3 6 -1 10 -9 10 -9 0 -16
-4 -16 -10z"/>
<path d="M210 595 c10 -12 10 -15 0 -15 -8 0 -10 -3 -7 -6 4 -4 14 -1 22 6 13
11 13 15 3 21 -21 14 -31 10 -18 -6z"/>
<path d="M253 547 c2 -6 20 -15 41 -18 43 -7 36 3 -12 19 -26 9 -33 9 -29 -1z"/>
<path d="M199 512 c5 -9 20 -26 33 -37 l23 -20 -22 26 c-13 14 -23 31 -23 37
0 7 -5 12 -10 12 -7 0 -7 -6 -1 -18z"/>
<path d="M338 442 c-10 -2 -15 -9 -11 -18 3 -8 0 -14 -6 -14 -6 0 -11 -4 -11
-10 0 -15 15 -12 39 8 23 19 16 40 -11 34z"/>
<path d="M271 413 c7 -10 15 -20 16 -22 2 -2 3 3 3 11 0 9 -7 19 -16 22 -15 6
-15 4 -3 -11z"/>
<path d="M270 15 c0 -8 7 -15 15 -15 8 0 15 7 15 15 0 8 -7 15 -15 15 -8 0
-15 -7 -15 -15z"/>
</g>
</svg>
